<?xml version="1.0" encoding="utf-8" standalone="yes"?><svg xmlns:xlink="http://www.w3.org/1999/xlink" xmlns="http://www.w3.org/2000/svg" focusable="false" preserveAspectRatio="xMinYMin" width="921" height="453" viewBox="-492.13 -223.72 921.36  453.35" style="background-color:white"><rect width="123" height="34" rx="0" ry="0" x="83" y="128" stroke-width="1" stroke="#FF9933" stroke-dasharray="" stroke-linecap="" fill="#CC0033" stroke-opacity="0.4" fill-opacity="0.4" visibility="hidden" style="opacity: 0;"/><path d="M264.6,71.8  C244.4,96.4  224.3,120.5  204.2,144.6   224.3,120.9  244.4,97.1  264.6,72.8  Z" stroke-width="1" stroke="#CC0033" stroke-dasharray="" stroke-linecap="" stroke-opacity="0.4" fill-opacity="0.4" visibility="hidden" style="opacity: 0;"/><path d="M129.9,44.7  C86.6,30.1  43.3,15.1  0.0,0.0   43.3,15.5  86.6,30.8  129.9,45.7  Z" stroke-width="1" stroke="#CC0033" stroke-dasharray="" stroke-linecap="" stroke-opacity="0.4" fill-opacity="0.4" visibility="hidden" style="opacity: 0;"/><path d="M-183.3,54.2  C-183.3,61.0 ,-183.3,108.4  -211.2,108.4 " stroke-width="2" stroke="#345780" stroke-dasharray="" stroke-linecap="" stroke-opacity="1" fill="none" fill-opacity="0" visibility="visible" style="opacity: 1;"/><path d="M-183.3,54.2  C-183.3,56.4 ,-183.3,72.2  -211.2,72.2 " stroke-width="2" stroke="#345780" stroke-dasharray="" stroke-linecap="" stroke-opacity="1" fill="none" fill-opacity="0" visibility="visible" style="opacity: 1;"/><path d="M-183.3,54.2  C-183.3,51.9 ,-183.3,36.1  -211.2,36.1 " stroke-width="2" stroke="#345780" stroke-dasharray="" stroke-linecap="" stroke-opacity="1" fill="none" fill-opacity="0" visibility="visible" style="opacity: 1;"/><path d="M-183.3,54.2  C-183.3,47.4 ,-183.3,0.0  -211.2,0.0 " stroke-width="2" stroke="#345780" stroke-dasharray="" stroke-linecap="" stroke-opacity="1" fill="none" fill-opacity="0" visibility="visible" style="opacity: 1;"/><path d="M-230.8,-72.2  C-230.8,-67.7 ,-230.8,-36.1  -258.9,-36.1 " stroke-width="2" stroke="#345780" stroke-dasharray="" stroke-linecap="" stroke-opacity="1" fill="none" fill-opacity="0" visibility="visible" style="opacity: 1;"/><path d="M-230.8,-72.2  C-230.8,-72.2 ,-230.8,-72.2  -258.9,-72.2 " stroke-width="2" stroke="#345780" stroke-dasharray="" stroke-linecap="" stroke-opacity="1" fill="none" fill-opacity="0" visibility="visible" style="opacity: 1;"/><path d="M-230.8,-72.2  C-230.8,-76.8 ,-230.8,-108.4  -258.9,-108.4 " stroke-width="2" stroke="#345780" stroke-dasharray="" stroke-linecap="" stroke-opacity="1" fill="none" fill-opacity="0" visibility="visible" style="opacity: 1;"/><path d="M-10.0,0.0  C-10.0,-9.0 ,-10.0,-72.2  -86.6,-72.2 " stroke-width="2" stroke="#E5628C" stroke-dasharray="" stroke-linecap="" stroke-opacity="1" fill="none" fill-opacity="0" visibility="visible" style="opacity: 1;"/><path d="M207.2,144.6  C207.2,149.1 ,207.2,180.7  235.1,180.7 " stroke-width="2" stroke="#345780" stroke-dasharray="" stroke-linecap="" stroke-opacity="1" fill="none" fill-opacity="0" visibility="visible" style="opacity: 1;"/><path d="M207.2,144.6  C207.2,144.6 ,207.2,144.6  235.1,144.6 " stroke-width="2" stroke="#345780" stroke-dasharray="" stroke-linecap="" stroke-opacity="1" fill="none" fill-opacity="0" visibility="visible" style="opacity: 1;"/><path d="M-10.0,0.0  C-10.0,6.8 ,-10.0,54.2  -86.6,54.2 " stroke-width="2" stroke="#F3AE3D" stroke-dasharray="" stroke-linecap="" stroke-opacity="1" fill="none" fill-opacity="0" visibility="visible" style="opacity: 1;"/><path d="M225.2,-54.2  C225.2,-38.4 ,225.2,72.4  253.2,72.4 " stroke-width="2" stroke="#345780" stroke-dasharray="" stroke-linecap="" stroke-opacity="1" fill="none" fill-opacity="0" visibility="visible" style="opacity: 1;"/><path d="M225.2,-54.2  C225.2,-42.9 ,225.2,36.3  253.2,36.3 " stroke-width="2" stroke="#345780" stroke-dasharray="" stroke-linecap="" stroke-opacity="1" fill="none" fill-opacity="0" visibility="visible" style="opacity: 1;"/><path d="M225.2,-54.2  C225.2,-47.4 ,225.2,0.2  253.2,0.2 " stroke-width="2" stroke="#345780" stroke-dasharray="" stroke-linecap="" stroke-opacity="1" fill="none" fill-opacity="0" visibility="visible" style="opacity: 1;"/><path d="M225.2,-54.2  C225.2,-51.9 ,225.2,-35.9  253.3,-35.9 " stroke-width="2" stroke="#345780" stroke-dasharray="" stroke-linecap="" stroke-opacity="1" fill="none" fill-opacity="0" visibility="visible" style="opacity: 1;"/><path d="M225.2,-54.2  C225.2,-56.4 ,225.2,-72.1  253.2,-72.1 " stroke-width="2" stroke="#345780" stroke-dasharray="" stroke-linecap="" stroke-opacity="1" fill="none" fill-opacity="0" visibility="visible" style="opacity: 1;"/><path d="M225.2,-54.2  C225.2,-60.9 ,225.2,-108.3  253.2,-108.3 " stroke-width="2" stroke="#345780" stroke-dasharray="" stroke-linecap="" stroke-opacity="1" fill="none" fill-opacity="0" visibility="visible" style="opacity: 1;"/><path d="M225.2,-54.2  C225.2,-65.5 ,225.2,-144.5  253.2,-144.5 " stroke-width="2" stroke="#345780" stroke-dasharray="" stroke-linecap="" stroke-opacity="1" fill="none" fill-opacity="0" visibility="visible" style="opacity: 1;"/><path d="M207.2,144.6  C207.2,140.1 ,207.2,108.5  235.2,108.5 " stroke-width="2" stroke="#345780" stroke-dasharray="" stroke-linecap="" stroke-opacity="1" fill="none" fill-opacity="0" visibility="visible" style="opacity: 1;"/><path d="M225.2,-54.2  C225.2,-70.0 ,225.2,-180.7  253.2,-180.7 " stroke-width="2" stroke="#345780" stroke-dasharray="" stroke-linecap="" stroke-opacity="1" fill="none" fill-opacity="0" visibility="visible" style="opacity: 1;"/><path d="M10.0,0.0  C10.0,18.1 ,10.0,144.6  86.6,144.6 " stroke-width="2" stroke="#EB5130" stroke-dasharray="" stroke-linecap="" stroke-opacity="1" fill="none" fill-opacity="0" visibility="visible" style="opacity: 1;"/><path d="M10.0,0.0  C10.0,-6.8 ,10.0,-54.2  86.6,-54.2 " stroke-width="2" stroke="#9B7BEB" stroke-dasharray="" stroke-linecap="" stroke-opacity="1" fill="none" fill-opacity="0" visibility="visible" style="opacity: 1;"/><g preserveAspectRatio="none" focusable="true" width="100" height="100" transform="translate(-54.63,-16.40) scale(1.00,1.00)" test-id="1" visibility="visible" style="opacity: 1;"><rect width="115" height="39" rx="12" ry="12" x="-3" y="-3" stroke-width="1" stroke="#ffffff" stroke-dasharray="" stroke-linecap="" fill="#ffffff" stroke-opacity="0" fill-opacity="0" style="cursor: default;"/><rect width="109" height="33" rx="10" ry="10" x="0" y="0" stroke-width="2" stroke="#FFFFFF" stroke-dasharray="" stroke-linecap="" fill="#FFFFFF" visibility="visible" style="cursor: default; opacity: 1;"/><text font-family="Verdana" font-size="13.4" font-style="normal" font-weight="bold" fill="#000000" visibility="visible" style="cursor: default; opacity: 1;" y="8.20" x="8.53"><tspan dy="1em" x="8.53">Redux Store</tspan></text><g preserveAspectRatio="none" focusable="true" width="0" height="21"/></g><g preserveAspectRatio="none" focusable="true" width="100" height="100" transform="translate(84.63,-68.57) scale(1.00,1.00)" test-id="2" visibility="visible" style="opacity: 1;"><rect width="143" height="35" rx="10" ry="10" x="-3" y="-3" stroke-width="1" stroke="#e1c1ff" stroke-dasharray="" stroke-linecap="" fill="#e1c1ff" stroke-opacity="0" fill-opacity="0" style="cursor: move;"/><rect width="137" height="29" rx="9" ry="9" x="0" y="0" stroke-width="2" stroke="#9B7BEB" stroke-dasharray="" stroke-linecap="" fill="#9B7BEB" style="cursor: move; opacity: 1;" visibility="visible"/><text font-family="Verdana" font-size="12.1" font-style="normal" font-weight="normal" fill="#000000" visibility="visible" style="cursor: move; opacity: 1;" y="7.20" x="7.49"><tspan dy="1em" x="7.49">Product API Queries</tspan></text><g preserveAspectRatio="none" focusable="true" width="0" height="19"/><ellipse width="6" height="6" rx="3" ry="3" cx="140" cy="14" stroke-width="2" stroke="#9B7BEB" stroke-dasharray="" stroke-linecap="" fill="#ffdfff" visibility="visible" style="cursor: default; opacity: 1;"/></g><g preserveAspectRatio="none" focusable="true" width="100" height="100" transform="translate(84.56,129.59) scale(1.00,1.00)" test-id="3" visibility="visible" style="opacity: 1;"><rect width="125" height="36" rx="11" ry="11" x="-3" y="-3" stroke-width="1" stroke="#ff9776" stroke-dasharray="" stroke-linecap="" fill="#ff9776" stroke-opacity="0" fill-opacity="0" style="cursor: move;"/><rect width="119" height="30" rx="9" ry="9" x="0" y="0" stroke-width="2" stroke="#EB5130" stroke-dasharray="" stroke-linecap="" fill="#EB5130" style="cursor: move; opacity: 1;" visibility="visible"/><text font-family="Verdana" font-size="12.1" font-style="normal" font-weight="normal" fill="#000000" visibility="visible" style="cursor: move; opacity: 1;" y="7.49" x="7.79"><tspan dy="1em" x="7.79">User API Queries</tspan></text><g preserveAspectRatio="none" focusable="true" width="0" height="19"/><ellipse width="6" height="6" rx="3" ry="3" cx="122" cy="15" stroke-width="2" stroke="#EB5130" stroke-dasharray="" stroke-linecap="" fill="#ffb594" visibility="visible" style="cursor: default; opacity: 1;"/></g><g preserveAspectRatio="none" focusable="true" width="100" height="100" transform="translate(-179.29,39.20) scale(1.00,1.00)" test-id="5" visibility="visible" style="opacity: 1;"><rect width="101" height="36" rx="11" ry="11" x="-3" y="-3" stroke-width="1" stroke="#fff483" stroke-dasharray="" stroke-linecap="" fill="#fff483" stroke-opacity="0" fill-opacity="0" style="cursor: move;"/><rect width="95" height="30" rx="9" ry="9" x="0" y="0" stroke-width="2" stroke="#F3AE3D" stroke-dasharray="" stroke-linecap="" fill="#F3AE3D" style="cursor: move; opacity: 1;" visibility="visible"/><text font-family="Verdana" font-size="12.1" font-style="normal" font-weight="normal" fill="#000000" visibility="visible" style="cursor: move; opacity: 1;" y="7.49" x="7.79"><tspan dy="1em" x="7.79">Cart Reducer</tspan></text><g preserveAspectRatio="none" focusable="true" width="0" height="19"/><ellipse width="6" height="6" rx="3" ry="3" cx="-3" cy="15" stroke-width="2" stroke="#F3AE3D" stroke-dasharray="" stroke-linecap="" fill="#ffffa1" visibility="visible" style="cursor: default; opacity: 1;"/></g><g preserveAspectRatio="none" focusable="true" width="100" height="100" transform="translate(251.23,-193.72) scale(1.00,1.00)" test-id="8" visibility="visible" style="opacity: 1;"><rect width="97" height="32" rx="10" ry="10" x="-3" y="-3" stroke-width="1" stroke="#faedff" stroke-dasharray="" stroke-linecap="" fill="#faedff" stroke-opacity="0" fill-opacity="0" style="cursor: move;"/><rect width="91" height="26" rx="12" ry="12" x="0" y="0" stroke-width="2" stroke="#b4a7d6" stroke-dasharray="" stroke-linecap="" fill="#b4a7d6" style="cursor: move;"/><text font-family="Verdana" font-size="10.8" font-style="normal" font-weight="normal" fill="#000000" visibility="visible" style="cursor: move; opacity: 1;" y="6.53" x="6.79"><tspan dy="1em" x="6.79">getAllProducts</tspan></text><g preserveAspectRatio="none" focusable="true" width="0" height="17"/><ellipse width="6" height="6" rx="3" ry="3" cx="5" cy="5" stroke-width="2" stroke="#b4a7d6" stroke-dasharray="" stroke-linecap="" fill="#ffffff" visibility="hidden" style="cursor: default; opacity: 0;"/></g><g preserveAspectRatio="none" focusable="true" width="100" height="100" transform="translate(233.16,95.42) scale(1.00,1.00)" test-id="11" visibility="visible" style="opacity: 1;"><rect width="115" height="32" rx="10" ry="10" x="-3" y="-3" stroke-width="1" stroke="#ffdfdf" stroke-dasharray="" stroke-linecap="" fill="#ffdfdf" stroke-opacity="0" fill-opacity="0" style="cursor: move;"/><rect width="109" height="26" rx="12" ry="12" x="0" y="0" stroke-width="2" stroke="#ea9999" stroke-dasharray="" stroke-linecap="" fill="#ea9999" style="cursor: move;"/><text font-family="Verdana" font-size="10.8" font-style="normal" font-weight="normal" fill="#000000" visibility="visible" style="cursor: move; opacity: 1;" y="6.52" x="6.78"><tspan dy="1em" x="6.78">useLoginMutation</tspan></text><g preserveAspectRatio="none" focusable="true" width="0" height="17"/><ellipse width="6" height="6" rx="3" ry="3" cx="5" cy="5" stroke-width="2" stroke="#ea9999" stroke-dasharray="" stroke-linecap="" fill="#fffdfd" visibility="hidden" style="cursor: default; opacity: 0;"/></g><g preserveAspectRatio="none" focusable="true" width="100" height="100" transform="translate(251.23,-157.53) scale(1.00,1.00)" test-id="12" visibility="visible" style="opacity: 1;"><rect width="120" height="32" rx="10" ry="10" x="-3" y="-3" stroke-width="1" stroke="#faedff" stroke-dasharray="" stroke-linecap="" fill="#faedff" stroke-opacity="0" fill-opacity="0" style="cursor: move;"/><rect width="114" height="26" rx="12" ry="12" x="0" y="0" stroke-width="2" stroke="#b4a7d6" stroke-dasharray="" stroke-linecap="" fill="#b4a7d6" style="cursor: move;"/><text font-family="Verdana" font-size="10.8" font-style="normal" font-weight="normal" fill="#000000" visibility="visible" style="cursor: move; opacity: 1;" y="6.53" x="6.79"><tspan dy="1em" x="6.79">getSortedProducts</tspan></text><g preserveAspectRatio="none" focusable="true" width="0" height="17"/><ellipse width="6" height="6" rx="3" ry="3" cx="117" cy="13" stroke-width="2" stroke="#b4a7d6" stroke-dasharray="" stroke-linecap="" fill="#ffffff" visibility="hidden" style="cursor: default; opacity: 0;"/></g><g preserveAspectRatio="none" focusable="true" width="100" height="100" transform="translate(251.23,-121.35) scale(1.00,1.00)" test-id="15" visibility="visible" style="opacity: 1;"><rect width="103" height="32" rx="10" ry="10" x="-3" y="-3" stroke-width="1" stroke="#faedff" stroke-dasharray="" stroke-linecap="" fill="#faedff" stroke-opacity="0" fill-opacity="0" style="cursor: move;"/><rect width="97" height="26" rx="12" ry="12" x="0" y="0" stroke-width="2" stroke="#b4a7d6" stroke-dasharray="" stroke-linecap="" fill="#b4a7d6" style="cursor: move;"/><text font-family="Verdana" font-size="10.8" font-style="normal" font-weight="normal" fill="#000000" visibility="visible" style="cursor: move; opacity: 1;" y="6.53" x="6.79"><tspan dy="1em" x="6.79">getProductById</tspan></text><g preserveAspectRatio="none" focusable="true" width="0" height="17"/><ellipse width="6" height="6" rx="3" ry="3" cx="5" cy="5" stroke-width="2" stroke="#b4a7d6" stroke-dasharray="" stroke-linecap="" fill="#ffffff" visibility="hidden" style="cursor: default; opacity: 0;"/></g><g preserveAspectRatio="none" focusable="true" width="100" height="100" transform="translate(251.23,-85.16) scale(1.00,1.00)" test-id="16" visibility="visible" style="opacity: 1;"><rect width="148" height="32" rx="10" ry="10" x="-3" y="-3" stroke-width="1" stroke="#faedff" stroke-dasharray="" stroke-linecap="" fill="#faedff" stroke-opacity="0" fill-opacity="0" style="cursor: move;"/><rect width="142" height="26" rx="12" ry="12" x="0" y="0" stroke-width="2" stroke="#b4a7d6" stroke-dasharray="" stroke-linecap="" fill="#b4a7d6" style="cursor: move;"/><text font-family="Verdana" font-size="10.8" font-style="normal" font-weight="normal" fill="#000000" visibility="visible" style="cursor: move; opacity: 1;" y="6.53" x="6.79"><tspan dy="1em" x="6.79">GetProductsByCategory</tspan></text><g preserveAspectRatio="none" focusable="true" width="0" height="17"/><ellipse width="6" height="6" rx="3" ry="3" cx="5" cy="5" stroke-width="2" stroke="#b4a7d6" stroke-dasharray="" stroke-linecap="" fill="#ffffff" visibility="hidden" style="cursor: default; opacity: 0;"/></g><g preserveAspectRatio="none" focusable="true" width="100" height="100" transform="translate(251.27,-48.90) scale(1.00,1.00)" test-id="17" visibility="visible" style="opacity: 1;"><rect width="135" height="32" rx="10" ry="10" x="-3" y="-3" stroke-width="1" stroke="#faedff" stroke-dasharray="" stroke-linecap="" fill="#faedff" stroke-opacity="0" fill-opacity="0" style="cursor: move;"/><rect width="129" height="26" rx="12" ry="12" x="0" y="0" stroke-width="2" stroke="#b4a7d6" stroke-dasharray="" stroke-linecap="" fill="#b4a7d6" style="cursor: move;"/><text font-family="Verdana" font-size="10.8" font-style="normal" font-weight="normal" fill="#000000" visibility="visible" style="cursor: move; opacity: 1;" y="6.50" x="6.75"><tspan dy="1em" x="6.75">getProductsBySearch</tspan></text><g preserveAspectRatio="none" focusable="true" width="0" height="17"/><ellipse width="6" height="6" rx="3" ry="3" cx="5" cy="5" stroke-width="2" stroke="#b4a7d6" stroke-dasharray="" stroke-linecap="" fill="#ffffff" visibility="hidden" style="cursor: default; opacity: 0;"/></g><g preserveAspectRatio="none" focusable="true" width="100" height="100" transform="translate(251.20,-12.84) scale(1.00,1.00)" test-id="18" visibility="visible" style="opacity: 1;"><rect width="118" height="32" rx="10" ry="10" x="-3" y="-3" stroke-width="1" stroke="#faedff" stroke-dasharray="" stroke-linecap="" fill="#faedff" stroke-opacity="0" fill-opacity="0" style="cursor: move;"/><rect width="112" height="26" rx="12" ry="12" x="0" y="0" stroke-width="2" stroke="#b4a7d6" stroke-dasharray="" stroke-linecap="" fill="#b4a7d6" style="cursor: move;"/><text font-family="Verdana" font-size="10.8" font-style="normal" font-weight="normal" fill="#000000" visibility="visible" style="cursor: move; opacity: 1;" y="6.53" x="6.79"><tspan dy="1em" x="6.79">createNewProduct</tspan></text><g preserveAspectRatio="none" focusable="true" width="0" height="17"/><ellipse width="6" height="6" rx="3" ry="3" cx="5" cy="5" stroke-width="2" stroke="#b4a7d6" stroke-dasharray="" stroke-linecap="" fill="#ffffff" visibility="hidden" style="cursor: default; opacity: 0;"/></g><g preserveAspectRatio="none" focusable="true" width="100" height="100" transform="translate(251.20,23.23) scale(1.00,1.00)" test-id="19" visibility="visible" style="opacity: 1;"><rect width="98" height="32" rx="10" ry="10" x="-3" y="-3" stroke-width="1" stroke="#faedff" stroke-dasharray="" stroke-linecap="" fill="#faedff" stroke-opacity="0" fill-opacity="0" style="cursor: move;"/><rect width="92" height="26" rx="12" ry="12" x="0" y="0" stroke-width="2" stroke="#b4a7d6" stroke-dasharray="" stroke-linecap="" fill="#b4a7d6" style="cursor: move;"/><text font-family="Verdana" font-size="10.8" font-style="normal" font-weight="normal" fill="#000000" visibility="visible" style="cursor: move; opacity: 1;" y="6.53" x="6.79"><tspan dy="1em" x="6.79">updateProduct</tspan></text><g preserveAspectRatio="none" focusable="true" width="0" height="17"/><ellipse width="6" height="6" rx="3" ry="3" cx="5" cy="5" stroke-width="2" stroke="#b4a7d6" stroke-dasharray="" stroke-linecap="" fill="#ffffff" visibility="hidden" style="cursor: default; opacity: 0;"/></g><g preserveAspectRatio="none" focusable="true" width="100" height="100" transform="translate(251.20,59.30) scale(1.00,1.00)" test-id="20" visibility="visible" style="opacity: 1;"><rect width="94" height="32" rx="10" ry="10" x="-3" y="-3" stroke-width="1" stroke="#faedff" stroke-dasharray="" stroke-linecap="" fill="#faedff" stroke-opacity="0" fill-opacity="0" style="cursor: move;"/><rect width="88" height="26" rx="12" ry="12" x="0" y="0" stroke-width="2" stroke="#b4a7d6" stroke-dasharray="" stroke-linecap="" fill="#b4a7d6" style="cursor: move;"/><text font-family="Verdana" font-size="10.8" font-style="normal" font-weight="normal" fill="#000000" visibility="visible" style="cursor: move; opacity: 1;" y="6.53" x="6.79"><tspan dy="1em" x="6.79">deleteProduct</tspan></text><g preserveAspectRatio="none" focusable="true" width="0" height="17"/><ellipse width="6" height="6" rx="3" ry="3" cx="5" cy="5" stroke-width="2" stroke="#b4a7d6" stroke-dasharray="" stroke-linecap="" fill="#ffffff" visibility="hidden" style="cursor: default; opacity: 0;"/></g><g preserveAspectRatio="none" focusable="true" width="100" height="100" transform="translate(233.14,131.52) scale(1.00,1.00)" test-id="21" visibility="visible" style="opacity: 1;"><rect width="130" height="32" rx="10" ry="10" x="-3" y="-3" stroke-width="1" stroke="#ffdfdf" stroke-dasharray="" stroke-linecap="" fill="#ffdfdf" stroke-opacity="0" fill-opacity="0" style="cursor: move;"/><rect width="124" height="26" rx="12" ry="12" x="0" y="0" stroke-width="2" stroke="#ea9999" stroke-dasharray="" stroke-linecap="" fill="#ea9999" style="cursor: move;"/><text font-family="Verdana" font-size="10.8" font-style="normal" font-weight="normal" fill="#000000" visibility="visible" style="cursor: move; opacity: 1;" y="6.53" x="6.79"><tspan dy="1em" x="6.79">useRegisterMutation</tspan></text><g preserveAspectRatio="none" focusable="true" width="0" height="17"/><ellipse width="6" height="6" rx="3" ry="3" cx="5" cy="5" stroke-width="2" stroke="#ea9999" stroke-dasharray="" stroke-linecap="" fill="#fffdfd" visibility="hidden" style="cursor: default; opacity: 0;"/></g><g preserveAspectRatio="none" focusable="true" width="100" height="100" transform="translate(233.14,167.63) scale(1.00,1.00)" test-id="22" visibility="visible" style="opacity: 1;"><rect width="124" height="32" rx="10" ry="10" x="-3" y="-3" stroke-width="1" stroke="#ffdfdf" stroke-dasharray="" stroke-linecap="" fill="#ffdfdf" stroke-opacity="0" fill-opacity="0" style="cursor: move;"/><rect width="118" height="26" rx="12" ry="12" x="0" y="0" stroke-width="2" stroke="#ea9999" stroke-dasharray="" stroke-linecap="" fill="#ea9999" style="cursor: move;"/><text font-family="Verdana" font-size="10.8" font-style="normal" font-weight="normal" fill="#000000" visibility="visible" style="cursor: move; opacity: 1;" y="6.53" x="6.79"><tspan dy="1em" x="6.79">useUpdateMutation</tspan></text><g preserveAspectRatio="none" focusable="true" width="0" height="17"/><ellipse width="6" height="6" rx="3" ry="3" cx="5" cy="5" stroke-width="2" stroke="#ea9999" stroke-dasharray="" stroke-linecap="" fill="#fffdfd" visibility="hidden" style="cursor: default; opacity: 0;"/></g><g preserveAspectRatio="none" focusable="true" width="100" height="100" transform="translate(-226.84,-86.80) scale(1.00,1.00)" test-id="28" visibility="visible" style="opacity: 1;"><rect width="148" height="35" rx="11" ry="11" x="-3" y="-3" stroke-width="1" stroke="#ffa8d2" stroke-dasharray="" stroke-linecap="" fill="#ffa8d2" stroke-opacity="0" fill-opacity="0" style="cursor: move;"/><rect width="142" height="29" rx="9" ry="9" x="0" y="0" stroke-width="2" stroke="#E5628C" stroke-dasharray="" stroke-linecap="" fill="#E5628C" style="cursor: move; opacity: 1;" visibility="visible"/><text font-family="Verdana" font-size="12.1" font-style="normal" font-weight="normal" fill="#000000" visibility="visible" style="cursor: move; opacity: 1;" y="7.28" x="7.57"><tspan dy="1em" x="7.57">CurrentUser Reducer</tspan></text><g preserveAspectRatio="none" focusable="true" width="0" height="19"/><ellipse width="6" height="6" rx="3" ry="3" cx="-3" cy="15" stroke-width="2" stroke="#E5628C" stroke-dasharray="" stroke-linecap="" fill="#ffc6f0" visibility="visible" style="cursor: default; opacity: 1;"/></g><g preserveAspectRatio="none" focusable="true" width="100" height="100" transform="translate(-462.13,-121.41) scale(1.00,1.00)" test-id="31" visibility="visible" style="opacity: 1;"><rect width="211" height="32" rx="10" ry="10" x="-3" y="-3" stroke-width="1" stroke="#ffffff" stroke-dasharray="" stroke-linecap="" fill="#ffffff" stroke-opacity="0" fill-opacity="0" style="cursor: move;"/><rect width="205" height="26" rx="12" ry="12" x="0" y="0" stroke-width="2" stroke="#ead1dc" stroke-dasharray="" stroke-linecap="" fill="#ead1dc" style="cursor: move;"/><text font-family="Verdana" font-size="10.8" font-style="normal" font-weight="normal" fill="#000000" visibility="visible" style="cursor: move; opacity: 1;" y="6.52" x="6.78"><tspan dy="1em" x="6.78">fetchCurrentUser (from dunnyjson)</tspan></text><g preserveAspectRatio="none" focusable="true" width="0" height="17"/><ellipse width="6" height="6" rx="3" ry="3" cx="5" cy="5" stroke-width="2" stroke="#ead1dc" stroke-dasharray="" stroke-linecap="" fill="#ffffff" visibility="hidden" style="cursor: default; opacity: 0;"/></g><g preserveAspectRatio="none" focusable="true" width="100" height="100" transform="translate(-425.37,-85.29) scale(1.00,1.00)" test-id="32" visibility="visible" style="opacity: 1;"><rect width="174" height="32" rx="10" ry="10" x="-3" y="-3" stroke-width="1" stroke="#ffffff" stroke-dasharray="" stroke-linecap="" fill="#ffffff" stroke-opacity="0" fill-opacity="0" style="cursor: move;"/><rect width="168" height="26" rx="12" ry="12" x="0" y="0" stroke-width="2" stroke="#ead1dc" stroke-dasharray="" stroke-linecap="" fill="#ead1dc" style="cursor: move;"/><text font-family="Verdana" font-size="10.8" font-style="normal" font-weight="normal" fill="#000000" visibility="visible" style="cursor: move; opacity: 1;" y="6.52" x="6.78"><tspan dy="1em" x="6.78">fetchCurrentUserWithGoogle</tspan></text><g preserveAspectRatio="none" focusable="true" width="0" height="17"/><ellipse width="6" height="6" rx="3" ry="3" cx="5" cy="5" stroke-width="2" stroke="#ead1dc" stroke-dasharray="" stroke-linecap="" fill="#ffffff" visibility="hidden" style="cursor: default; opacity: 0;"/></g><g preserveAspectRatio="none" focusable="true" width="100" height="100" transform="translate(-304.30,-49.17) scale(1.00,1.00)" test-id="33" visibility="visible" style="opacity: 1;"><rect width="53" height="32" rx="10" ry="10" x="-3" y="-3" stroke-width="1" stroke="#ffffff" stroke-dasharray="" stroke-linecap="" fill="#ffffff" stroke-opacity="0" fill-opacity="0" style="cursor: move;"/><rect width="47" height="26" rx="12" ry="12" x="0" y="0" stroke-width="2" stroke="#ead1dc" stroke-dasharray="" stroke-linecap="" fill="#ead1dc" style="cursor: move;"/><text font-family="Verdana" font-size="10.8" font-style="normal" font-weight="normal" fill="#000000" visibility="visible" style="cursor: move; opacity: 1;" y="6.52" x="6.78"><tspan dy="1em" x="6.78">logout</tspan></text><g preserveAspectRatio="none" focusable="true" width="0" height="17"/><ellipse width="6" height="6" rx="3" ry="3" cx="5" cy="5" stroke-width="2" stroke="#ead1dc" stroke-dasharray="" stroke-linecap="" fill="#ffffff" visibility="hidden" style="cursor: default; opacity: 0;"/></g><g preserveAspectRatio="none" focusable="true" width="100" height="100" transform="translate(-412.37,-13.06) scale(1.00,1.00)" test-id="34" visibility="visible" style="opacity: 1;"><rect width="209" height="32" rx="10" ry="10" x="-3" y="-3" stroke-width="1" stroke="#ffffe2" stroke-dasharray="" stroke-linecap="" fill="#ffffe2" stroke-opacity="0" fill-opacity="0" style="cursor: move;"/><rect width="203" height="26" rx="12" ry="12" x="0" y="0" stroke-width="2" stroke="#f9cb9c" stroke-dasharray="" stroke-linecap="" fill="#f9cb9c" style="cursor: move;"/><text font-family="Verdana" font-size="10.8" font-style="normal" font-weight="normal" fill="#000000" visibility="visible" style="cursor: move; opacity: 1;" y="6.53" x="6.79"><tspan dy="1em" x="6.79">fetchUserCart (and merge to local)</tspan></text><g preserveAspectRatio="none" focusable="true" width="0" height="17"/><ellipse width="6" height="6" rx="3" ry="3" cx="5" cy="5" stroke-width="2" stroke="#f9cb9c" stroke-dasharray="" stroke-linecap="" fill="#ffffff" visibility="hidden" style="cursor: default; opacity: 0;"/></g><g preserveAspectRatio="none" focusable="true" width="100" height="100" transform="translate(-277.70,23.06) scale(1.00,1.00)" test-id="35" visibility="visible" style="opacity: 1;"><rect width="74" height="32" rx="10" ry="10" x="-3" y="-3" stroke-width="1" stroke="#ffffe2" stroke-dasharray="" stroke-linecap="" fill="#ffffe2" stroke-opacity="0" fill-opacity="0" style="cursor: move;"/><rect width="68" height="26" rx="12" ry="12" x="0" y="0" stroke-width="2" stroke="#f9cb9c" stroke-dasharray="" stroke-linecap="" fill="#f9cb9c" style="cursor: move;"/><text font-family="Verdana" font-size="10.8" font-style="normal" font-weight="normal" fill="#000000" visibility="visible" style="cursor: move; opacity: 1;" y="6.53" x="6.79"><tspan dy="1em" x="6.79">addToCart</tspan></text><g preserveAspectRatio="none" focusable="true" width="0" height="17"/><ellipse width="6" height="6" rx="3" ry="3" cx="5" cy="5" stroke-width="2" stroke="#f9cb9c" stroke-dasharray="" stroke-linecap="" fill="#ffffff" visibility="hidden" style="cursor: default; opacity: 0;"/></g><g preserveAspectRatio="none" focusable="true" width="100" height="100" transform="translate(-314.33,59.18) scale(1.00,1.00)" test-id="36" visibility="visible" style="opacity: 1;"><rect width="111" height="32" rx="10" ry="10" x="-3" y="-3" stroke-width="1" stroke="#ffffe2" stroke-dasharray="" stroke-linecap="" fill="#ffffe2" stroke-opacity="0" fill-opacity="0" style="cursor: move;"/><rect width="105" height="26" rx="12" ry="12" x="0" y="0" stroke-width="2" stroke="#f9cb9c" stroke-dasharray="" stroke-linecap="" fill="#f9cb9c" style="cursor: move;"/><text font-family="Verdana" font-size="10.8" font-style="normal" font-weight="normal" fill="#000000" visibility="visible" style="cursor: move; opacity: 1;" y="6.53" x="6.79"><tspan dy="1em" x="6.79">removeFromCart</tspan></text><g preserveAspectRatio="none" focusable="true" width="0" height="17"/><ellipse width="6" height="6" rx="3" ry="3" cx="5" cy="5" stroke-width="2" stroke="#f9cb9c" stroke-dasharray="" stroke-linecap="" fill="#ffffff" visibility="hidden" style="cursor: default; opacity: 0;"/></g><g preserveAspectRatio="none" focusable="true" width="100" height="100" transform="translate(-306.75,95.31) scale(1.00,1.00)" test-id="37" visibility="visible" style="opacity: 1;"><rect width="104" height="32" rx="10" ry="10" x="-3" y="-3" stroke-width="1" stroke="#ffffe2" stroke-dasharray="" stroke-linecap="" fill="#ffffe2" stroke-opacity="0" fill-opacity="0" style="cursor: move;"/><rect width="98" height="26" rx="12" ry="12" x="0" y="0" stroke-width="2" stroke="#f9cb9c" stroke-dasharray="" stroke-linecap="" fill="#f9cb9c" style="cursor: move;"/><text font-family="Verdana" font-size="10.8" font-style="normal" font-weight="normal" fill="#000000" visibility="visible" style="cursor: move; opacity: 1;" y="6.53" x="6.79"><tspan dy="1em" x="6.79">updateQuantity</tspan></text><g preserveAspectRatio="none" focusable="true" width="0" height="17"/><ellipse width="6" height="6" rx="3" ry="3" cx="5" cy="5" stroke-width="2" stroke="#f9cb9c" stroke-dasharray="" stroke-linecap="" fill="#ffffff" visibility="hidden" style="cursor: default; opacity: 0;"/></g><rect width="50" height="6" rx="0" ry="0" x="263" y="69" stroke-width="1" stroke="#FF9933" stroke-dasharray="" stroke-linecap="" fill="#CC0033" stroke-opacity="0.4" fill-opacity="0.4" visibility="hidden" style="opacity: 0;"/></svg>